<svg id="Camada_1" data-name="Camada 1" xmlns="http://www.w3.org/2000/svg" viewBox="0 0 841.89 595.28"><defs><style>.cls-1,.cls-2{fill:#2966ff;}.cls-1{stroke:#2966ff;stroke-miterlimit:10;stroke-width:1.48px;}</style></defs><path class="cls-1" d="M259,337.17a7.79,7.79,0,0,0-4.09,1.14l-29.38-29.37a17.34,17.34,0,0,1-2.64,2.64L252.21,341a7.79,7.79,0,0,0-1.14,4.09,7.88,7.88,0,1,0,7.88-7.88Zm0,12a4.1,4.1,0,0,1-4.1-4.1,4.37,4.37,0,0,1,.19-1.26,4.13,4.13,0,0,1,2.65-2.64A4.05,4.05,0,0,1,259,341a4.1,4.1,0,0,1,0,8.2Z"/><path class="cls-1" d="M220.66,256.84H239V243a7.91,7.91,0,1,0-3.74,0V253.1H216.92v27.75a17.74,17.74,0,0,1,3.74,1.75ZM233,235.37a4.1,4.1,0,1,1,4.1,4.1A4.09,4.09,0,0,1,233,235.37Z"/><path class="cls-1" d="M213.15,280V238a7.89,7.89,0,1,0-3.74,0V280c.61-.06,1.24-.09,1.87-.09S212.53,280,213.15,280ZM209.41,234a4.11,4.11,0,1,1,3.74,0,4.06,4.06,0,0,1-1.87.45A4.15,4.15,0,0,1,209.41,234Z"/><path class="cls-1" d="M200.24,311.58a17.88,17.88,0,0,1-2.65-2.64l-29.37,29.37a7.79,7.79,0,0,0-4.09-1.14,7.88,7.88,0,1,0,7.88,7.88,7.79,7.79,0,0,0-1.15-4.09Zm-36.11,37.57a4.1,4.1,0,1,1,4.1-4.1A4.09,4.09,0,0,1,164.13,349.15Z"/><path class="cls-1" d="M225.51,295.77a13.76,13.76,0,0,0-1-3.78,13.94,13.94,0,0,0-1.72-2.91c-.22-.29-.44-.56-.68-.82a13.51,13.51,0,0,0-2-1.82,15.13,15.13,0,0,0-1.5-1,13.93,13.93,0,0,0-3.45-1.42,13.9,13.9,0,0,0-5.48-.34,13.17,13.17,0,0,0-1.77.34,14.38,14.38,0,0,0-3.45,1.44,14.53,14.53,0,0,0-1.47,1,13.51,13.51,0,0,0-2,1.82c-.24.26-.46.53-.68.82a13.94,13.94,0,0,0-1.72,2.91,13.76,13.76,0,0,0-1.05,3.78,13.51,13.51,0,0,0,0,3.74,13.93,13.93,0,0,0,2.77,6.69,10.56,10.56,0,0,0,.68.82,13.51,13.51,0,0,0,2,1.82,13.1,13.1,0,0,0,1.5,1,14.16,14.16,0,0,0,3.45,1.42,12.45,12.45,0,0,0,1.74.34,13.51,13.51,0,0,0,3.74,0,11.42,11.42,0,0,0,1.76-.35,13.87,13.87,0,0,0,3.46-1.43,14.53,14.53,0,0,0,1.47-1,13.51,13.51,0,0,0,2-1.82,10.56,10.56,0,0,0,.68-.82,13.93,13.93,0,0,0,2.77-6.69,13.51,13.51,0,0,0,0-3.74Zm-3.65,3.74a10.22,10.22,0,0,1-1.49,3.78,3.53,3.53,0,0,1-.21.32,10.76,10.76,0,0,1-2.65,2.65,2.9,2.9,0,0,1-.29.19,8.91,8.91,0,0,1-1,.57,10.19,10.19,0,0,1-2.45.87l-.36.07a10.37,10.37,0,0,1-3.74,0l-.35-.07a10.66,10.66,0,0,1-2.47-.87,8.79,8.79,0,0,1-1-.56l-.31-.2a10.55,10.55,0,0,1-2.64-2.65,3.62,3.62,0,0,1-.22-.32,10.2,10.2,0,0,1-1.48-3.78,10.37,10.37,0,0,1,0-3.74A10.2,10.2,0,0,1,202.7,292l.22-.33a10.35,10.35,0,0,1,2.64-2.64l.29-.19a11.13,11.13,0,0,1,1-.57,10.27,10.27,0,0,1,2.46-.87l.36-.07a10.37,10.37,0,0,1,3.74,0l.34.07a9.93,9.93,0,0,1,2.47.87,8.09,8.09,0,0,1,1,.56l.3.2a10.72,10.72,0,0,1,2.65,2.64c.07.11.15.22.21.33a10.22,10.22,0,0,1,1.49,3.78,10.37,10.37,0,0,1,0,3.74Z"/><path class="cls-1" d="M259.25,242a7.89,7.89,0,0,0-6.74,12L222.84,283.7a17.34,17.34,0,0,1,2.64,2.64l29.68-29.68a7.79,7.79,0,0,0,4.09,1.15,7.89,7.89,0,1,0,0-15.77Zm0,12a4.11,4.11,0,0,1-4.1-4.1,4.1,4.1,0,1,1,4.1,4.1Z"/><path class="cls-1" d="M273.74,263.92a7.89,7.89,0,0,0-7.66,6H252.14v18.32h-25.3a17.15,17.15,0,0,1,1.74,3.73h27.3V273.68h10.2a7.88,7.88,0,1,0,7.66-9.76Zm0,12a4.1,4.1,0,1,1,4.1-4.11A4.11,4.11,0,0,1,273.74,275.91Z"/><path class="cls-1" d="M278.62,289.76a7.87,7.87,0,0,0-7.65,6H229.39c.06.61.1,1.24.1,1.87s0,1.26-.1,1.87H271a7.89,7.89,0,1,0,7.66-9.75Zm0,12a4.11,4.11,0,0,1-3.65-2.23,4.11,4.11,0,0,1,0-3.74,4.1,4.1,0,1,1,3.65,6Z"/><path class="cls-1" d="M274.07,315.59a7.9,7.9,0,0,0-7.64,5.91H255.88V303.29h-27.3a17.15,17.15,0,0,1-1.74,3.73h25.3v18.22h14.24a7.89,7.89,0,1,0,7.69-9.65Zm0,12a4.1,4.1,0,1,1,4.1-4.1A4.09,4.09,0,0,1,274.07,327.57Z"/><path class="cls-1" d="M245,360.1a7.88,7.88,0,0,0-6-7.66V338.5H220.66V313.2a17.23,17.23,0,0,1-3.74,1.74v27.3h18.32v10.2A7.88,7.88,0,1,0,245,360.1Zm-12,0a4.1,4.1,0,1,1,4.1,4.1A4.1,4.1,0,0,1,233,360.1Z"/><path class="cls-1" d="M219.16,365a7.86,7.86,0,0,0-6-7.65V315.75c-.62.06-1.24.1-1.87.1s-1.26,0-1.87-.1v41.57a7.89,7.89,0,1,0,9.75,7.66Zm-12,0a4.09,4.09,0,0,1,2.23-3.65,4.11,4.11,0,0,1,3.74,0,4.1,4.1,0,1,1-6,3.65Z"/><path class="cls-1" d="M193.33,360.43a7.9,7.9,0,0,0-5.92-7.64V342.24h18.22v-27.3a17.45,17.45,0,0,1-3.74-1.74v25.3H183.67v14.24a7.89,7.89,0,1,0,9.66,7.69Zm-12,0a4.11,4.11,0,1,1,4.11,4.1A4.1,4.1,0,0,1,181.34,360.43Z"/><path class="cls-1" d="M194.5,303.29H166.75v17.84h-9.88a7.88,7.88,0,1,0,.23,3.74h13.38V307h25.76A17.15,17.15,0,0,1,194.5,303.29Zm-45.17,24.28a4.1,4.1,0,1,1,4.11-4.1A4.09,4.09,0,0,1,149.33,327.57Z"/><path class="cls-1" d="M193.68,295.77H151.59a7.88,7.88,0,1,0,0,3.74h42.09c-.06-.61-.09-1.24-.09-1.87S193.62,296.38,193.68,295.77Zm-46.09,3.74a4.11,4.11,0,1,1,0-3.74,4.06,4.06,0,0,1,.45,1.87A4.19,4.19,0,0,1,147.59,299.51Z"/><path class="cls-1" d="M170.48,288.26V269.94H156.67a7.88,7.88,0,1,0,0,3.74h10.08V292H194.5a17.15,17.15,0,0,1,1.74-3.73ZM149,275.91a4.1,4.1,0,1,1,4.1-4.11A4.11,4.11,0,0,1,149,275.91Z"/><path class="cls-1" d="M170.56,254a7.79,7.79,0,0,0,1.15-4.09,7.89,7.89,0,1,0-3.79,6.73l29.68,29.68a17.88,17.88,0,0,1,2.64-2.65Zm-2.83-2.83a4.1,4.1,0,1,1,.2-1.26A4.09,4.09,0,0,1,167.73,251.19Z"/><path class="cls-1" d="M205.63,280.85V253.1H187.78v-9.88a7.88,7.88,0,1,0-3.73.23v13.39h17.84V282.6A18,18,0,0,1,205.63,280.85Zm-24.29-45.16a4.11,4.11,0,1,1,4.11,4.1A4.1,4.1,0,0,1,181.34,235.69Z"/><path class="cls-2" d="M325.52,301V254.53h6.54V301Z"/><path class="cls-2" d="M417.86,301.71a24.68,24.68,0,0,1-12.31-3,20.29,20.29,0,0,1-8.12-8.35,29.27,29.27,0,0,1,0-25.28,20.34,20.34,0,0,1,8.12-8.32,27.18,27.18,0,0,1,24.67,0,20.17,20.17,0,0,1,8.1,8.32,29.41,29.41,0,0,1,0,25.28,20.35,20.35,0,0,1-8.12,8.35A24.7,24.7,0,0,1,417.86,301.71Zm0-5.74q7.8,0,12.22-4.88t4.42-13.31c0-5.67-1.47-10.11-4.42-13.35s-7-4.85-12.22-4.85-9.23,1.62-12.2,4.85-4.45,7.68-4.45,13.35,1.49,10.11,4.45,13.34S412.69,296,417.86,296Z"/><path class="cls-2" d="M461.3,301l-19.22-46.49h7.11l16.07,39.6h.29l16-39.6h6.89L469.22,301Z"/><path class="cls-2" d="M551.92,301.71q-9,0-14.26-3.9A14.13,14.13,0,0,1,531.83,287h6.95a8.34,8.34,0,0,0,3.67,6.8q3.45,2.39,9.64,2.38,5.52,0,8.44-1.95a6.51,6.51,0,0,0,2.93-5.8,6.37,6.37,0,0,0-2-4.88,12,12,0,0,0-6.06-2.64l-8.89-1.77q-6-1.22-9.18-4.34a10.54,10.54,0,0,1-3.16-7.83,11.49,11.49,0,0,1,4.53-9.56q4.55-3.52,12.34-3.53t12.83,3.71a14.24,14.24,0,0,1,5.71,10.3h-6.95q-1.71-8.49-12-8.5a12.87,12.87,0,0,0-7.37,1.84,6,6,0,0,0-2.67,5.22q0,5.46,7.75,7l9.29,1.84q6.09,1.2,9.18,4.39a11.3,11.3,0,0,1,3.1,8.24,12.07,12.07,0,0,1-4.76,10.18C561.94,300.49,557.55,301.71,551.92,301.71Z"/><path class="cls-2" d="M599.67,301.71a24.68,24.68,0,0,1-12.31-3,20.29,20.29,0,0,1-8.12-8.35,29.27,29.27,0,0,1,0-25.28,20.34,20.34,0,0,1,8.12-8.32,27.2,27.2,0,0,1,24.68,0,20.21,20.21,0,0,1,8.09,8.32,29.41,29.41,0,0,1,0,25.28,20.29,20.29,0,0,1-8.12,8.35A24.7,24.7,0,0,1,599.67,301.71Zm0-5.74q7.8,0,12.22-4.88t4.42-13.31c0-5.67-1.47-10.11-4.42-13.35s-7-4.85-12.22-4.85-9.23,1.62-12.2,4.85S583,272.11,583,277.78s1.48,10.11,4.44,13.34S594.5,296,599.67,296Z"/><path class="cls-2" d="M638.35,301h-6.6V261.07a6.54,6.54,0,0,1,6.54-6.54H663.6v5.63H638.35v14.63h23.76v5.63H638.35Z"/><path class="cls-2" d="M689.25,301h-6.54V260.16H666.13v-5.63h39.71v5.63H689.25Z"/><path class="cls-2" d="M510.05,254.53,529.28,301h-7.12l-16.06-39.6h-.29l-16,39.6h-6.89l19.23-46.49Z"/><path class="cls-2" d="M388,254.53H350.19a6.54,6.54,0,0,0-6.54,6.54h0V301h6.54V261.07h29V301h6.55V261.07H388Z"/><path class="cls-2" d="M334.73,335.69h-2.59V319.48h-6.58v-2.23h15.75v2.23h-6.58Z"/><path class="cls-2" d="M347.64,336a7.46,7.46,0,0,1-3.71-.88,5.93,5.93,0,0,1-2.42-2.49,8,8,0,0,1-.86-3.78,7.81,7.81,0,0,1,.86-3.75,6,6,0,0,1,2.4-2.44,7.26,7.26,0,0,1,3.62-.87,7,7,0,0,1,3.43.8,5.58,5.58,0,0,1,2.24,2.25,7.13,7.13,0,0,1,.8,3.46v1H343.11a5,5,0,0,0,1.31,3.33,4.31,4.31,0,0,0,3.2,1.2,4.52,4.52,0,0,0,2.35-.58,3.07,3.07,0,0,0,1.32-1.72h2.59a5.37,5.37,0,0,1-2.15,3.28A7,7,0,0,1,347.64,336Zm-4.44-8.54h8.34a3.92,3.92,0,0,0-1.24-2.62,4.09,4.09,0,0,0-2.79-.93,4.11,4.11,0,0,0-4.31,3.55Z"/><path class="cls-2" d="M363,336a7.16,7.16,0,0,1-3.62-.88,6.08,6.08,0,0,1-2.4-2.47,7.82,7.82,0,0,1-.85-3.76,7.92,7.92,0,0,1,.84-3.75,5.93,5.93,0,0,1,2.39-2.47,7.19,7.19,0,0,1,3.64-.88,6.82,6.82,0,0,1,4.18,1.24,5.86,5.86,0,0,1,2.2,3.56h-2.58a3.28,3.28,0,0,0-1.33-1.94A4.37,4.37,0,0,0,363,324a4,4,0,0,0-3.17,1.28,6.18,6.18,0,0,0,0,7.18,4,4,0,0,0,3.17,1.29c2.11,0,3.41-.94,3.89-2.8h2.58a6.07,6.07,0,0,1-2.19,3.73A6.84,6.84,0,0,1,363,336Z"/><path class="cls-2" d="M371.71,335.69V316.57h2.55v7.65h.09a4.46,4.46,0,0,1,1.84-1.81,5.9,5.9,0,0,1,2.8-.63,5.52,5.52,0,0,1,4.09,1.52,5.45,5.45,0,0,1,1.52,4v8.35H382v-7.92a3.72,3.72,0,0,0-1-2.8,4.85,4.85,0,0,0-5.79,0,3.69,3.69,0,0,0-1,2.8v7.92Z"/><path class="cls-2" d="M388.78,335.69v-11h-1.32V322h2.74v2.1h.95a4.61,4.61,0,0,1,1.94-1.74,6.38,6.38,0,0,1,2.89-.61,5.67,5.67,0,0,1,4.17,1.52,5.45,5.45,0,0,1,1.52,4v8.35h-2.55v-7.92a3.72,3.72,0,0,0-1-2.8,4.85,4.85,0,0,0-5.79,0,3.69,3.69,0,0,0-1,2.8v7.92Z"/><path class="cls-2" d="M411.51,336a7.45,7.45,0,0,1-3.7-.88,6.07,6.07,0,0,1-2.45-2.47,8.54,8.54,0,0,1,0-7.51,6,6,0,0,1,2.45-2.47,7.45,7.45,0,0,1,3.7-.88,7.58,7.58,0,0,1,3.74.87,6,6,0,0,1,2.42,2.45,8.81,8.81,0,0,1,0,7.55,5.91,5.91,0,0,1-2.43,2.47A7.59,7.59,0,0,1,411.51,336Zm0-2.23a4.22,4.22,0,0,0,3.29-1.29,6.09,6.09,0,0,0,0-7.18,4.84,4.84,0,0,0-6.57,0,6,6,0,0,0,0,7.17A4.23,4.23,0,0,0,411.51,333.74Z"/><path class="cls-2" d="M421.57,335.69V316.57h2.55v19.12Z"/><path class="cls-2" d="M434.18,336a7.47,7.47,0,0,1-3.7-.88,6,6,0,0,1-2.44-2.47,8.54,8.54,0,0,1,0-7.51,6,6,0,0,1,2.44-2.47,7.47,7.47,0,0,1,3.7-.88,7.59,7.59,0,0,1,3.75.87,5.93,5.93,0,0,1,2.41,2.45,8.72,8.72,0,0,1,0,7.55,5.94,5.94,0,0,1-2.42,2.47A7.6,7.6,0,0,1,434.18,336Zm0-2.23a4.22,4.22,0,0,0,3.29-1.29,6.05,6.05,0,0,0,0-7.18,4.84,4.84,0,0,0-6.57,0,6,6,0,0,0,0,7.17A4.24,4.24,0,0,0,434.18,333.74Z"/><path class="cls-2" d="M450,341.43a8.22,8.22,0,0,1-4.63-1.18,4.63,4.63,0,0,1-2.09-3.28H446c.41,1.55,1.73,2.32,4,2.32a4.8,4.8,0,0,0,3.28-1,3.66,3.66,0,0,0,1.14-2.88v-2.21h-.12a4,4,0,0,1-1.73,1.86,5.76,5.76,0,0,1-2.8.64,6.47,6.47,0,0,1-3.37-.85,5.65,5.65,0,0,1-2.2-2.41,8.21,8.21,0,0,1-.78-3.7,7.23,7.23,0,0,1,1.73-5.09,6.92,6.92,0,0,1,7.56-1.28,4.55,4.55,0,0,1,1.87,1.77h.95V322h2.74v2.64h-1.32v10.84a5.46,5.46,0,0,1-1.81,4.36A7.58,7.58,0,0,1,450,341.43Zm.34-8a4.07,4.07,0,0,0,2.9-1,3.65,3.65,0,0,0,1.11-2.78v-1.82a3.64,3.64,0,0,0-1.11-2.78,4,4,0,0,0-2.9-1.05,4.27,4.27,0,0,0-3.25,1.24,5.81,5.81,0,0,0,0,7A4.27,4.27,0,0,0,450.35,333.46Z"/><path class="cls-2" d="M460.91,341.16v-2h3.3l1.42-3.39L459.5,322h2.64l4.69,10.68H467L471.41,322h2.5l-5.83,13.66-1.36,3.21a9.77,9.77,0,0,1-.9,1.66,1.83,1.83,0,0,1-1.56.6Z"/><path class="cls-2" d="M491.22,336a9.83,9.83,0,0,1-4.89-1.17,8.05,8.05,0,0,1-3.22-3.32,11.64,11.64,0,0,1,0-10.05,8.06,8.06,0,0,1,3.22-3.3,10.78,10.78,0,0,1,8.68-.48,6.91,6.91,0,0,1,2.72,2,7.5,7.5,0,0,1,1.46,3.22h-2.65a4.4,4.4,0,0,0-1.78-2.71,6.06,6.06,0,0,0-3.54-.95,6.31,6.31,0,0,0-4.9,1.93,8.79,8.79,0,0,0,0,10.58,6.34,6.34,0,0,0,4.9,1.92,6.13,6.13,0,0,0,3.54-.94,4.35,4.35,0,0,0,1.78-2.7h2.65a7.53,7.53,0,0,1-1.46,3.2,7,7,0,0,1-2.72,2A9.59,9.59,0,0,1,491.22,336Z"/><path class="cls-2" d="M507.81,336a7.47,7.47,0,0,1-3.7-.88,6,6,0,0,1-2.44-2.47,8.54,8.54,0,0,1,0-7.51,6,6,0,0,1,2.44-2.47,7.47,7.47,0,0,1,3.7-.88,7.59,7.59,0,0,1,3.75.87,5.93,5.93,0,0,1,2.41,2.45,8.72,8.72,0,0,1,0,7.55,5.94,5.94,0,0,1-2.42,2.47A7.6,7.6,0,0,1,507.81,336Zm0-2.23a4.21,4.21,0,0,0,3.29-1.29,6.05,6.05,0,0,0,0-7.18,4.83,4.83,0,0,0-6.56,0,6,6,0,0,0,0,7.17A4.2,4.2,0,0,0,507.81,333.74Z"/><path class="cls-2" d="M518.33,335.69v-11H517V322h2.73v2.1h1.1a4,4,0,0,1,1.72-1.74,6.28,6.28,0,0,1,5.46,0,4.61,4.61,0,0,1,1.81,2h.07a5,5,0,0,1,4.71-2.6,5.23,5.23,0,0,1,3.94,1.46,5.52,5.52,0,0,1,1.41,4v8.44h-2.55v-8.08q0-3.6-3.5-3.6t-3.49,3.6v8.08h-2.55v-8.08q0-3.6-3.5-3.6a3.43,3.43,0,0,0-2.6.93,3.69,3.69,0,0,0-.89,2.67v8.08Z"/><path class="cls-2" d="M544.15,341.16V324.67h-1.32V322h2.73v2.1h1a4.49,4.49,0,0,1,1.87-1.77,6.15,6.15,0,0,1,2.82-.6,6.61,6.61,0,0,1,3.5.87,5.58,5.58,0,0,1,2.2,2.45,9.84,9.84,0,0,1,0,7.56,5.51,5.51,0,0,1-2.15,2.46,6.17,6.17,0,0,1-3.33.87,5.94,5.94,0,0,1-2.83-.65,4.29,4.29,0,0,1-1.82-1.83h-.09v7.67Zm6.67-7.38a4,4,0,0,0,3.18-1.3,6.36,6.36,0,0,0,0-7.24,4,4,0,0,0-3.18-1.29,4.14,4.14,0,0,0-3,1.07,3.74,3.74,0,0,0-1.13,2.84v2a3.74,3.74,0,0,0,1.13,2.84A4.14,4.14,0,0,0,550.82,333.78Z"/><path class="cls-2" d="M564.64,335.94a5.38,5.38,0,0,1-3.65-1.15,3.77,3.77,0,0,1-1.33-3,3.7,3.7,0,0,1,1.32-3,5.85,5.85,0,0,1,3.8-1.08h4.67V327q0-3.17-3.49-3.16c-1.89,0-3,.71-3.44,2.14H560a4.59,4.59,0,0,1,1.95-3.14,7,7,0,0,1,4.11-1.12,6.39,6.39,0,0,1,4.36,1.34,4.91,4.91,0,0,1,1.51,3.87v6.08h1.23v2.64h-2.73V333.6h-1a4.88,4.88,0,0,1-1.93,1.72A6.17,6.17,0,0,1,564.64,335.94Zm.34-2a5,5,0,0,0,2.26-.51,4,4,0,0,0,1.61-1.36,3.26,3.26,0,0,0,.6-1.89v-.62h-4.51c-1.91,0-2.87.72-2.87,2.14a2,2,0,0,0,.77,1.63A3.42,3.42,0,0,0,565,333.9Z"/><path class="cls-2" d="M576.21,335.69v-11h-1.32V322h2.73v2.1h1a4.58,4.58,0,0,1,1.93-1.74,6.38,6.38,0,0,1,2.89-.61,5.67,5.67,0,0,1,4.17,1.52,5.42,5.42,0,0,1,1.53,4v8.35h-2.56v-7.92a3.72,3.72,0,0,0-1-2.8,4.85,4.85,0,0,0-5.79,0,3.69,3.69,0,0,0-1,2.8v7.92Z"/><path class="cls-2" d="M592,341.16v-2h3.3l1.42-3.39L590.55,322h2.64l4.69,10.68H598L602.46,322H605l-5.82,13.66-1.37,3.21a8.54,8.54,0,0,1-.9,1.66,1.83,1.83,0,0,1-1.56.6Z"/></svg>